<mxfile host="app.diagrams.net" modified="2023-04-03T09:33:32.908Z" agent="Mozilla/5.0 (X11; Linux x86_64) AppleWebKit/537.36 (KHTML, like Gecko) Chrome/111.0.0.0 Safari/537.36" etag="w6JLYEhWOQ4hMzYBbfFu" version="21.1.2" type="device">
  <diagram name="Page-1" id="0783ab3e-0a74-02c8-0abd-f7b4e66b4bec">
    <mxGraphModel dx="2476" dy="1549" grid="1" gridSize="10" guides="1" tooltips="1" connect="1" arrows="1" fold="1" page="1" pageScale="1" pageWidth="850" pageHeight="1400" background="none" math="0" shadow="0">
      <root>
        <mxCell id="0" />
        <mxCell id="1" parent="0" />
        <mxCell id="1c1d494c118603dd-1" value="Image Grabbing Flow" style="swimlane;html=1;childLayout=stackLayout;startSize=20;rounded=1;shadow=0;comic=0;labelBackgroundColor=none;strokeWidth=1;fontFamily=Verdana;fontSize=12;align=center;fillColor=#F5AB50;strokeColor=#909090;fontColor=#1A1A1A;" parent="1" vertex="1">
          <mxGeometry x="330" y="20" width="2230" height="2600" as="geometry" />
        </mxCell>
        <mxCell id="1c1d494c118603dd-2" value="UI" style="swimlane;html=1;startSize=20;labelBackgroundColor=none;fillColor=#F5AB50;strokeColor=#909090;fontColor=#1A1A1A;rounded=1;" parent="1c1d494c118603dd-1" vertex="1">
          <mxGeometry y="20" width="250" height="2580" as="geometry">
            <mxRectangle y="20" width="40" height="2770" as="alternateBounds" />
          </mxGeometry>
        </mxCell>
        <mxCell id="0ttMGwkUPAn2IfLDutRi-9" style="edgeStyle=orthogonalEdgeStyle;rounded=1;orthogonalLoop=1;jettySize=auto;html=1;strokeColor=#182E3E;fontColor=default;labelBackgroundColor=none;" parent="1c1d494c118603dd-2" source="60571a20871a0731-4" target="0ttMGwkUPAn2IfLDutRi-3" edge="1">
          <mxGeometry relative="1" as="geometry">
            <Array as="points">
              <mxPoint x="90" y="75" />
            </Array>
          </mxGeometry>
        </mxCell>
        <mxCell id="60571a20871a0731-4" value="" style="ellipse;whiteSpace=wrap;html=1;rounded=1;shadow=0;comic=0;labelBackgroundColor=none;strokeWidth=1;fillColor=#F5AB50;fontFamily=Verdana;fontSize=12;align=center;strokeColor=#909090;fontColor=#1A1A1A;" parent="1c1d494c118603dd-2" vertex="1">
          <mxGeometry x="20" y="60" width="30" height="30" as="geometry" />
        </mxCell>
        <mxCell id="0ttMGwkUPAn2IfLDutRi-3" value="load sheet clicked" style="html=1;shadow=0;dashed=0;align=center;verticalAlign=middle;shape=mxgraph.arrows2.arrow;dy=0;dx=10;notch=0;labelBackgroundColor=none;fillColor=#F5AB50;strokeColor=#909090;fontColor=#1A1A1A;rounded=1;" parent="1c1d494c118603dd-2" vertex="1">
          <mxGeometry x="90" y="60" width="130" height="30" as="geometry" />
        </mxCell>
        <mxCell id="LzMdF5yWvqr9AUWOiEUe-1" value="" style="whiteSpace=wrap;html=1;rounded=1;shadow=0;comic=0;labelBackgroundColor=none;strokeWidth=1;fillColor=#F5AB50;fontFamily=Verdana;fontSize=12;align=center;rotation=0;direction=north;strokeColor=#909090;fontColor=#1A1A1A;" parent="1c1d494c118603dd-2" vertex="1">
          <mxGeometry x="220" y="30" width="10" height="112" as="geometry" />
        </mxCell>
        <mxCell id="flL5xJ1YVoLGHaUx3-4S-35" value="next_coil_btn" style="html=1;shadow=0;dashed=0;align=center;verticalAlign=middle;shape=mxgraph.arrows2.arrow;dy=0;dx=10;notch=0;labelBackgroundColor=none;fillColor=#F5AB50;strokeColor=#909090;fontColor=#1A1A1A;rounded=1;" vertex="1" parent="1c1d494c118603dd-2">
          <mxGeometry x="60" y="2410" width="130" height="30" as="geometry" />
        </mxCell>
        <mxCell id="1c1d494c118603dd-3" value="UI_main_window" style="swimlane;html=1;startSize=20;labelBackgroundColor=none;fillColor=#F5AB50;strokeColor=#909090;fontColor=#1A1A1A;rounded=1;" parent="1c1d494c118603dd-1" vertex="1">
          <mxGeometry x="250" y="20" width="250" height="2580" as="geometry" />
        </mxCell>
        <mxCell id="LzMdF5yWvqr9AUWOiEUe-7" style="edgeStyle=orthogonalEdgeStyle;rounded=0;orthogonalLoop=1;jettySize=auto;html=1;" parent="1c1d494c118603dd-3" source="LzMdF5yWvqr9AUWOiEUe-3" target="0ttMGwkUPAn2IfLDutRi-56" edge="1">
          <mxGeometry relative="1" as="geometry" />
        </mxCell>
        <mxCell id="LzMdF5yWvqr9AUWOiEUe-3" value="receive clicked&amp;nbsp;&lt;br&gt;load sheet" style="html=1;shape=mxgraph.sysml.accEvent;strokeWidth=2;whiteSpace=wrap;align=center;strokeColor=#909090;fontColor=#1A1A1A;fillColor=#F5AB50;labelBackgroundColor=none;rounded=1;rotation=90;" parent="1c1d494c118603dd-3" vertex="1">
          <mxGeometry x="75" y="140" width="100" height="30" as="geometry" />
        </mxCell>
        <mxCell id="0ttMGwkUPAn2IfLDutRi-56" value="data_load_win_show.show" style="rounded=1;whiteSpace=wrap;html=1;strokeColor=#909090;fontColor=#1A1A1A;fillColor=#F5AB50;labelBackgroundColor=none;" parent="1c1d494c118603dd-3" vertex="1">
          <mxGeometry x="50" y="240" width="150" height="30" as="geometry" />
        </mxCell>
        <mxCell id="iVWesP0wvM5eVoUu-c5u-1" value="API" style="swimlane;html=1;startSize=20;labelBackgroundColor=none;fillColor=#F5AB50;strokeColor=#909090;fontColor=#1A1A1A;rounded=1;" parent="1c1d494c118603dd-1" vertex="1">
          <mxGeometry x="500" y="20" width="470" height="2580" as="geometry" />
        </mxCell>
        <mxCell id="0ttMGwkUPAn2IfLDutRi-30" value="" style="edgeStyle=orthogonalEdgeStyle;rounded=1;orthogonalLoop=1;jettySize=auto;html=1;strokeColor=#182E3E;fontColor=default;labelBackgroundColor=none;" parent="iVWesP0wvM5eVoUu-c5u-1" source="0ttMGwkUPAn2IfLDutRi-20" target="0ttMGwkUPAn2IfLDutRi-29" edge="1">
          <mxGeometry relative="1" as="geometry" />
        </mxCell>
        <mxCell id="0ttMGwkUPAn2IfLDutRi-20" value="receive clicked&amp;nbsp;&lt;br&gt;load sheet" style="html=1;shape=mxgraph.sysml.accEvent;strokeWidth=2;whiteSpace=wrap;align=center;strokeColor=#909090;fontColor=#1A1A1A;fillColor=#F5AB50;labelBackgroundColor=none;rounded=1;" parent="iVWesP0wvM5eVoUu-c5u-1" vertex="1">
          <mxGeometry x="60" y="60" width="100" height="30" as="geometry" />
        </mxCell>
        <mxCell id="LzMdF5yWvqr9AUWOiEUe-10" style="edgeStyle=orthogonalEdgeStyle;rounded=0;orthogonalLoop=1;jettySize=auto;html=1;" parent="iVWesP0wvM5eVoUu-c5u-1" source="0ttMGwkUPAn2IfLDutRi-29" edge="1">
          <mxGeometry relative="1" as="geometry">
            <mxPoint x="235" y="140" as="targetPoint" />
          </mxGeometry>
        </mxCell>
        <mxCell id="0ttMGwkUPAn2IfLDutRi-29" value="show_sheet_loader" style="rounded=1;whiteSpace=wrap;html=1;strokeColor=#909090;fontColor=#1A1A1A;fillColor=#F5AB50;labelBackgroundColor=none;" parent="iVWesP0wvM5eVoUu-c5u-1" vertex="1">
          <mxGeometry x="175" y="52.5" width="120" height="45" as="geometry" />
        </mxCell>
        <mxCell id="LzMdF5yWvqr9AUWOiEUe-11" value="get_report_last_sheet(9999)" style="rounded=1;whiteSpace=wrap;html=1;strokeColor=#909090;fontColor=#1A1A1A;fillColor=#F5AB50;labelBackgroundColor=none;" parent="iVWesP0wvM5eVoUu-c5u-1" vertex="1">
          <mxGeometry x="152.5" y="140" width="165" height="45" as="geometry" />
        </mxCell>
        <mxCell id="LzMdF5yWvqr9AUWOiEUe-78" value="load_sheets" style="rounded=1;whiteSpace=wrap;html=1;strokeColor=#909090;fontColor=#1A1A1A;fillColor=#F5AB50;labelBackgroundColor=none;" parent="iVWesP0wvM5eVoUu-c5u-1" vertex="1">
          <mxGeometry x="230" y="1000" width="120" height="45" as="geometry" />
        </mxCell>
        <mxCell id="LzMdF5yWvqr9AUWOiEUe-83" style="edgeStyle=orthogonalEdgeStyle;rounded=0;orthogonalLoop=1;jettySize=auto;html=1;entryX=0;entryY=0.5;entryDx=0;entryDy=0;" parent="iVWesP0wvM5eVoUu-c5u-1" source="LzMdF5yWvqr9AUWOiEUe-79" target="LzMdF5yWvqr9AUWOiEUe-78" edge="1">
          <mxGeometry relative="1" as="geometry" />
        </mxCell>
        <mxCell id="LzMdF5yWvqr9AUWOiEUe-79" value="receive clicked&lt;br&gt;load_btn" style="html=1;shape=mxgraph.sysml.accEvent;strokeWidth=2;whiteSpace=wrap;align=center;strokeColor=#909090;fontColor=#1A1A1A;fillColor=#F5AB50;labelBackgroundColor=none;rounded=1;" parent="iVWesP0wvM5eVoUu-c5u-1" vertex="1">
          <mxGeometry x="70" y="1007.5" width="100" height="30" as="geometry" />
        </mxCell>
        <mxCell id="LzMdF5yWvqr9AUWOiEUe-94" style="edgeStyle=orthogonalEdgeStyle;rounded=0;orthogonalLoop=1;jettySize=auto;html=1;exitX=0;exitY=0.5;exitDx=0;exitDy=0;" parent="iVWesP0wvM5eVoUu-c5u-1" source="LzMdF5yWvqr9AUWOiEUe-89" target="LzMdF5yWvqr9AUWOiEUe-93" edge="1">
          <mxGeometry relative="1" as="geometry">
            <Array as="points">
              <mxPoint x="110" y="1155" />
              <mxPoint x="110" y="1313" />
            </Array>
          </mxGeometry>
        </mxCell>
        <mxCell id="LzMdF5yWvqr9AUWOiEUe-95" value="False" style="edgeLabel;html=1;align=center;verticalAlign=middle;resizable=0;points=[];" parent="LzMdF5yWvqr9AUWOiEUe-94" vertex="1" connectable="0">
          <mxGeometry x="0.0612" y="2" relative="1" as="geometry">
            <mxPoint as="offset" />
          </mxGeometry>
        </mxCell>
        <mxCell id="LzMdF5yWvqr9AUWOiEUe-89" value="&lt;font color=&quot;#1a1a1a&quot;&gt;selectd_sheets == none ?&lt;/font&gt;" style="rhombus;whiteSpace=wrap;html=1;fillColor=#F5AB50;strokeColor=#909090;" parent="iVWesP0wvM5eVoUu-c5u-1" vertex="1">
          <mxGeometry x="152.5" y="1115" width="190" height="80" as="geometry" />
        </mxCell>
        <mxCell id="flL5xJ1YVoLGHaUx3-4S-2" style="edgeStyle=orthogonalEdgeStyle;rounded=0;orthogonalLoop=1;jettySize=auto;html=1;" edge="1" parent="iVWesP0wvM5eVoUu-c5u-1" source="LzMdF5yWvqr9AUWOiEUe-93" target="LzMdF5yWvqr9AUWOiEUe-96">
          <mxGeometry relative="1" as="geometry" />
        </mxCell>
        <mxCell id="LzMdF5yWvqr9AUWOiEUe-93" value="add sheets on move_on_list object" style="rounded=1;whiteSpace=wrap;html=1;strokeColor=#909090;fontColor=#1A1A1A;fillColor=#F5AB50;labelBackgroundColor=none;" parent="iVWesP0wvM5eVoUu-c5u-1" vertex="1">
          <mxGeometry x="187.5" y="1290" width="120" height="45" as="geometry" />
        </mxCell>
        <mxCell id="flL5xJ1YVoLGHaUx3-4S-5" value="True" style="edgeStyle=orthogonalEdgeStyle;rounded=0;orthogonalLoop=1;jettySize=auto;html=1;" edge="1" parent="iVWesP0wvM5eVoUu-c5u-1" source="LzMdF5yWvqr9AUWOiEUe-96" target="flL5xJ1YVoLGHaUx3-4S-3">
          <mxGeometry relative="1" as="geometry">
            <Array as="points">
              <mxPoint x="110" y="1420" />
            </Array>
          </mxGeometry>
        </mxCell>
        <mxCell id="flL5xJ1YVoLGHaUx3-4S-6" value="False" style="edgeStyle=orthogonalEdgeStyle;rounded=0;orthogonalLoop=1;jettySize=auto;html=1;entryX=0.601;entryY=-0.053;entryDx=0;entryDy=0;entryPerimeter=0;" edge="1" parent="iVWesP0wvM5eVoUu-c5u-1" source="LzMdF5yWvqr9AUWOiEUe-96" target="flL5xJ1YVoLGHaUx3-4S-4">
          <mxGeometry relative="1" as="geometry">
            <Array as="points">
              <mxPoint x="390" y="1420" />
            </Array>
          </mxGeometry>
        </mxCell>
        <mxCell id="LzMdF5yWvqr9AUWOiEUe-96" value="&lt;font color=&quot;#1a1a1a&quot;&gt;check this sheet imgprocessing before ?&lt;/font&gt;" style="rhombus;whiteSpace=wrap;html=1;fillColor=#F5AB50;strokeColor=#909090;" parent="iVWesP0wvM5eVoUu-c5u-1" vertex="1">
          <mxGeometry x="152.5" y="1380" width="190" height="80" as="geometry" />
        </mxCell>
        <mxCell id="flL5xJ1YVoLGHaUx3-4S-9" style="edgeStyle=orthogonalEdgeStyle;rounded=0;orthogonalLoop=1;jettySize=auto;html=1;entryX=0.5;entryY=0;entryDx=0;entryDy=0;" edge="1" parent="iVWesP0wvM5eVoUu-c5u-1" source="flL5xJ1YVoLGHaUx3-4S-3" target="flL5xJ1YVoLGHaUx3-4S-7">
          <mxGeometry relative="1" as="geometry">
            <Array as="points">
              <mxPoint x="248" y="1533" />
              <mxPoint x="248" y="1570" />
            </Array>
          </mxGeometry>
        </mxCell>
        <mxCell id="flL5xJ1YVoLGHaUx3-4S-3" value="set flag create img_process = False" style="rounded=1;whiteSpace=wrap;html=1;strokeColor=#909090;fontColor=#1A1A1A;fillColor=#F5AB50;labelBackgroundColor=none;" vertex="1" parent="iVWesP0wvM5eVoUu-c5u-1">
          <mxGeometry x="50" y="1510" width="120" height="45" as="geometry" />
        </mxCell>
        <mxCell id="flL5xJ1YVoLGHaUx3-4S-8" style="edgeStyle=orthogonalEdgeStyle;rounded=0;orthogonalLoop=1;jettySize=auto;html=1;entryX=0.5;entryY=0;entryDx=0;entryDy=0;" edge="1" parent="iVWesP0wvM5eVoUu-c5u-1" source="flL5xJ1YVoLGHaUx3-4S-4" target="flL5xJ1YVoLGHaUx3-4S-7">
          <mxGeometry relative="1" as="geometry">
            <Array as="points">
              <mxPoint x="248" y="1532" />
              <mxPoint x="248" y="1570" />
            </Array>
          </mxGeometry>
        </mxCell>
        <mxCell id="flL5xJ1YVoLGHaUx3-4S-4" value="set flag create img_process = True" style="rounded=1;whiteSpace=wrap;html=1;strokeColor=#909090;fontColor=#1A1A1A;fillColor=#F5AB50;labelBackgroundColor=none;" vertex="1" parent="iVWesP0wvM5eVoUu-c5u-1">
          <mxGeometry x="317.5" y="1510" width="120" height="45" as="geometry" />
        </mxCell>
        <mxCell id="flL5xJ1YVoLGHaUx3-4S-10" value="False" style="edgeStyle=orthogonalEdgeStyle;rounded=0;orthogonalLoop=1;jettySize=auto;html=1;entryX=0.264;entryY=0.192;entryDx=0;entryDy=0;entryPerimeter=0;" edge="1" parent="iVWesP0wvM5eVoUu-c5u-1" source="flL5xJ1YVoLGHaUx3-4S-7" target="LzMdF5yWvqr9AUWOiEUe-96">
          <mxGeometry relative="1" as="geometry">
            <Array as="points">
              <mxPoint x="20" y="1630" />
              <mxPoint x="20" y="1395" />
            </Array>
          </mxGeometry>
        </mxCell>
        <mxCell id="flL5xJ1YVoLGHaUx3-4S-11" style="edgeStyle=orthogonalEdgeStyle;rounded=0;orthogonalLoop=1;jettySize=auto;html=1;entryX=0.5;entryY=0;entryDx=0;entryDy=0;" edge="1" parent="iVWesP0wvM5eVoUu-c5u-1" source="flL5xJ1YVoLGHaUx3-4S-7" target="flL5xJ1YVoLGHaUx3-4S-12">
          <mxGeometry relative="1" as="geometry">
            <mxPoint x="240" y="1720" as="targetPoint" />
          </mxGeometry>
        </mxCell>
        <mxCell id="flL5xJ1YVoLGHaUx3-4S-7" value="&lt;font color=&quot;#1a1a1a&quot;&gt;all sheet cehcked ?&lt;/font&gt;" style="rhombus;whiteSpace=wrap;html=1;fillColor=#F5AB50;strokeColor=#909090;" vertex="1" parent="iVWesP0wvM5eVoUu-c5u-1">
          <mxGeometry x="152.5" y="1590" width="190" height="80" as="geometry" />
        </mxCell>
        <mxCell id="flL5xJ1YVoLGHaUx3-4S-12" value="clear last selected images" style="rounded=1;whiteSpace=wrap;html=1;strokeColor=#909090;fontColor=#1A1A1A;fillColor=#F5AB50;labelBackgroundColor=none;" vertex="1" parent="iVWesP0wvM5eVoUu-c5u-1">
          <mxGeometry x="187.5" y="1720" width="120" height="45" as="geometry" />
        </mxCell>
        <mxCell id="flL5xJ1YVoLGHaUx3-4S-13" style="edgeStyle=orthogonalEdgeStyle;rounded=0;orthogonalLoop=1;jettySize=auto;html=1;exitX=0.5;exitY=1;exitDx=0;exitDy=0;" edge="1" parent="iVWesP0wvM5eVoUu-c5u-1" source="flL5xJ1YVoLGHaUx3-4S-12" target="flL5xJ1YVoLGHaUx3-4S-12">
          <mxGeometry relative="1" as="geometry" />
        </mxCell>
        <mxCell id="flL5xJ1YVoLGHaUx3-4S-27" style="edgeStyle=orthogonalEdgeStyle;rounded=0;orthogonalLoop=1;jettySize=auto;html=1;entryX=0.5;entryY=0;entryDx=0;entryDy=0;" edge="1" parent="iVWesP0wvM5eVoUu-c5u-1" source="flL5xJ1YVoLGHaUx3-4S-21" target="flL5xJ1YVoLGHaUx3-4S-26">
          <mxGeometry relative="1" as="geometry" />
        </mxCell>
        <mxCell id="flL5xJ1YVoLGHaUx3-4S-21" value="build_sheet_technical" style="rounded=1;whiteSpace=wrap;html=1;strokeColor=#909090;fontColor=#1A1A1A;fillColor=#F5AB50;labelBackgroundColor=none;" vertex="1" parent="iVWesP0wvM5eVoUu-c5u-1">
          <mxGeometry x="187.5" y="1930" width="120" height="45" as="geometry" />
        </mxCell>
        <mxCell id="flL5xJ1YVoLGHaUx3-4S-24" style="edgeStyle=orthogonalEdgeStyle;rounded=0;orthogonalLoop=1;jettySize=auto;html=1;entryX=0.58;entryY=-0.015;entryDx=0;entryDy=0;entryPerimeter=0;dashed=1;dashPattern=8 8;" edge="1" parent="iVWesP0wvM5eVoUu-c5u-1" source="flL5xJ1YVoLGHaUx3-4S-23" target="flL5xJ1YVoLGHaUx3-4S-21">
          <mxGeometry relative="1" as="geometry">
            <Array as="points">
              <mxPoint x="257" y="1850" />
            </Array>
          </mxGeometry>
        </mxCell>
        <mxCell id="flL5xJ1YVoLGHaUx3-4S-23" value="create thenical view for all sheets with infoes from datagrabber.sheetOverView()&lt;br&gt;set fps of mouse movement&lt;br&gt;set img on ui&lt;br&gt;connect mouse movement" style="whiteSpace=wrap;html=1;shape=mxgraph.basic.document" vertex="1" parent="iVWesP0wvM5eVoUu-c5u-1">
          <mxGeometry x="20" y="1790" width="190" height="100" as="geometry" />
        </mxCell>
        <mxCell id="flL5xJ1YVoLGHaUx3-4S-30" style="edgeStyle=orthogonalEdgeStyle;rounded=0;orthogonalLoop=1;jettySize=auto;html=1;entryX=0.5;entryY=0;entryDx=0;entryDy=0;" edge="1" parent="iVWesP0wvM5eVoUu-c5u-1" source="flL5xJ1YVoLGHaUx3-4S-26" target="flL5xJ1YVoLGHaUx3-4S-28">
          <mxGeometry relative="1" as="geometry" />
        </mxCell>
        <mxCell id="flL5xJ1YVoLGHaUx3-4S-31" value="True" style="edgeLabel;html=1;align=center;verticalAlign=middle;resizable=0;points=[];" vertex="1" connectable="0" parent="flL5xJ1YVoLGHaUx3-4S-30">
          <mxGeometry x="-0.2518" y="2" relative="1" as="geometry">
            <mxPoint as="offset" />
          </mxGeometry>
        </mxCell>
        <mxCell id="flL5xJ1YVoLGHaUx3-4S-33" value="False" style="edgeStyle=orthogonalEdgeStyle;rounded=0;orthogonalLoop=1;jettySize=auto;html=1;entryX=0;entryY=0.5;entryDx=0;entryDy=0;" edge="1" parent="iVWesP0wvM5eVoUu-c5u-1" source="flL5xJ1YVoLGHaUx3-4S-26" target="flL5xJ1YVoLGHaUx3-4S-32">
          <mxGeometry relative="1" as="geometry">
            <Array as="points">
              <mxPoint x="40" y="2050" />
              <mxPoint x="40" y="2253" />
            </Array>
          </mxGeometry>
        </mxCell>
        <mxCell id="flL5xJ1YVoLGHaUx3-4S-26" value="&lt;font color=&quot;#1a1a1a&quot;&gt;checkbox_suggested_defects?&lt;/font&gt;" style="rhombus;whiteSpace=wrap;html=1;fillColor=#F5AB50;strokeColor=#909090;" vertex="1" parent="iVWesP0wvM5eVoUu-c5u-1">
          <mxGeometry x="154" y="2010" width="190" height="80" as="geometry" />
        </mxCell>
        <mxCell id="flL5xJ1YVoLGHaUx3-4S-34" style="edgeStyle=orthogonalEdgeStyle;rounded=0;orthogonalLoop=1;jettySize=auto;html=1;entryX=0;entryY=0.5;entryDx=0;entryDy=0;" edge="1" parent="iVWesP0wvM5eVoUu-c5u-1" source="flL5xJ1YVoLGHaUx3-4S-28" target="flL5xJ1YVoLGHaUx3-4S-32">
          <mxGeometry relative="1" as="geometry" />
        </mxCell>
        <mxCell id="flL5xJ1YVoLGHaUx3-4S-28" value="load_suggestions" style="rounded=1;whiteSpace=wrap;html=1;strokeColor=#909090;fontColor=#1A1A1A;fillColor=#F5AB50;labelBackgroundColor=none;" vertex="1" parent="iVWesP0wvM5eVoUu-c5u-1">
          <mxGeometry x="90" y="2130" width="120" height="45" as="geometry" />
        </mxCell>
        <mxCell id="flL5xJ1YVoLGHaUx3-4S-29" value="&lt;br&gt;get image processing parms from db&lt;br&gt;create json path&lt;br&gt;set thread and step and run algorithm on another thread" style="whiteSpace=wrap;html=1;shape=mxgraph.basic.document" vertex="1" parent="iVWesP0wvM5eVoUu-c5u-1">
          <mxGeometry x="297.5" y="2090" width="160" height="90" as="geometry" />
        </mxCell>
        <mxCell id="flL5xJ1YVoLGHaUx3-4S-37" style="edgeStyle=orthogonalEdgeStyle;rounded=0;orthogonalLoop=1;jettySize=auto;html=1;" edge="1" parent="iVWesP0wvM5eVoUu-c5u-1" source="flL5xJ1YVoLGHaUx3-4S-32" target="flL5xJ1YVoLGHaUx3-4S-36">
          <mxGeometry relative="1" as="geometry" />
        </mxCell>
        <mxCell id="flL5xJ1YVoLGHaUx3-4S-32" value="set_ui_parms" style="rounded=1;whiteSpace=wrap;html=1;strokeColor=#909090;fontColor=#1A1A1A;fillColor=#F5AB50;labelBackgroundColor=none;" vertex="1" parent="iVWesP0wvM5eVoUu-c5u-1">
          <mxGeometry x="189" y="2230" width="120" height="45" as="geometry" />
        </mxCell>
        <mxCell id="flL5xJ1YVoLGHaUx3-4S-36" value="" style="ellipse;whiteSpace=wrap;html=1;rounded=1;shadow=0;comic=0;labelBackgroundColor=none;strokeWidth=1;fillColor=#330000;fontFamily=Verdana;fontSize=12;align=center;strokeColor=#909090;fontColor=#1A1A1A;" vertex="1" parent="iVWesP0wvM5eVoUu-c5u-1">
          <mxGeometry x="380" y="2237.5" width="30" height="30" as="geometry" />
        </mxCell>
        <mxCell id="flL5xJ1YVoLGHaUx3-4S-48" style="edgeStyle=orthogonalEdgeStyle;rounded=0;orthogonalLoop=1;jettySize=auto;html=1;" edge="1" parent="iVWesP0wvM5eVoUu-c5u-1" source="flL5xJ1YVoLGHaUx3-4S-38" target="flL5xJ1YVoLGHaUx3-4S-46">
          <mxGeometry relative="1" as="geometry" />
        </mxCell>
        <mxCell id="flL5xJ1YVoLGHaUx3-4S-38" value="receive clicked&amp;nbsp;&lt;br&gt;next_coil" style="html=1;shape=mxgraph.sysml.accEvent;strokeWidth=2;whiteSpace=wrap;align=center;strokeColor=#909090;fontColor=#1A1A1A;fillColor=#F5AB50;labelBackgroundColor=none;rounded=1;" vertex="1" parent="iVWesP0wvM5eVoUu-c5u-1">
          <mxGeometry x="40" y="2411" width="100" height="30" as="geometry" />
        </mxCell>
        <mxCell id="flL5xJ1YVoLGHaUx3-4S-40" value="load_sheet" style="rounded=1;whiteSpace=wrap;html=1;strokeColor=#909090;fontColor=#1A1A1A;fillColor=#F5AB50;labelBackgroundColor=none;" vertex="1" parent="iVWesP0wvM5eVoUu-c5u-1">
          <mxGeometry x="325" y="2403.5" width="120" height="45" as="geometry" />
        </mxCell>
        <mxCell id="flL5xJ1YVoLGHaUx3-4S-43" value="prev_coil_btn" style="html=1;shadow=0;dashed=0;align=center;verticalAlign=middle;shape=mxgraph.arrows2.arrow;dy=0;dx=10;notch=0;labelBackgroundColor=none;fillColor=#F5AB50;strokeColor=#909090;fontColor=#1A1A1A;rounded=1;" vertex="1" parent="iVWesP0wvM5eVoUu-c5u-1">
          <mxGeometry x="-441" y="2500" width="130" height="30" as="geometry" />
        </mxCell>
        <mxCell id="flL5xJ1YVoLGHaUx3-4S-49" style="edgeStyle=orthogonalEdgeStyle;rounded=0;orthogonalLoop=1;jettySize=auto;html=1;" edge="1" parent="iVWesP0wvM5eVoUu-c5u-1" source="flL5xJ1YVoLGHaUx3-4S-44" target="flL5xJ1YVoLGHaUx3-4S-47">
          <mxGeometry relative="1" as="geometry" />
        </mxCell>
        <mxCell id="flL5xJ1YVoLGHaUx3-4S-44" value="receive clicked&amp;nbsp;&lt;br&gt;prev_coil" style="html=1;shape=mxgraph.sysml.accEvent;strokeWidth=2;whiteSpace=wrap;align=center;strokeColor=#909090;fontColor=#1A1A1A;fillColor=#F5AB50;labelBackgroundColor=none;rounded=1;" vertex="1" parent="iVWesP0wvM5eVoUu-c5u-1">
          <mxGeometry x="39" y="2501" width="100" height="30" as="geometry" />
        </mxCell>
        <mxCell id="flL5xJ1YVoLGHaUx3-4S-45" style="edgeStyle=orthogonalEdgeStyle;rounded=0;orthogonalLoop=1;jettySize=auto;html=1;entryX=0;entryY=0.5;entryDx=9;entryDy=0;entryPerimeter=0;" edge="1" parent="iVWesP0wvM5eVoUu-c5u-1" source="flL5xJ1YVoLGHaUx3-4S-43" target="flL5xJ1YVoLGHaUx3-4S-44">
          <mxGeometry relative="1" as="geometry" />
        </mxCell>
        <mxCell id="flL5xJ1YVoLGHaUx3-4S-50" style="edgeStyle=orthogonalEdgeStyle;rounded=0;orthogonalLoop=1;jettySize=auto;html=1;" edge="1" parent="iVWesP0wvM5eVoUu-c5u-1" source="flL5xJ1YVoLGHaUx3-4S-46" target="flL5xJ1YVoLGHaUx3-4S-40">
          <mxGeometry relative="1" as="geometry" />
        </mxCell>
        <mxCell id="flL5xJ1YVoLGHaUx3-4S-46" value="next_move_on_list" style="rounded=1;whiteSpace=wrap;html=1;strokeColor=#909090;fontColor=#1A1A1A;fillColor=#F5AB50;labelBackgroundColor=none;" vertex="1" parent="iVWesP0wvM5eVoUu-c5u-1">
          <mxGeometry x="175" y="2403.5" width="120" height="45" as="geometry" />
        </mxCell>
        <mxCell id="flL5xJ1YVoLGHaUx3-4S-51" style="edgeStyle=orthogonalEdgeStyle;rounded=0;orthogonalLoop=1;jettySize=auto;html=1;entryX=0.5;entryY=1;entryDx=0;entryDy=0;" edge="1" parent="iVWesP0wvM5eVoUu-c5u-1" source="flL5xJ1YVoLGHaUx3-4S-47" target="flL5xJ1YVoLGHaUx3-4S-40">
          <mxGeometry relative="1" as="geometry" />
        </mxCell>
        <mxCell id="flL5xJ1YVoLGHaUx3-4S-47" value="prev_move_on_list" style="rounded=1;whiteSpace=wrap;html=1;strokeColor=#909090;fontColor=#1A1A1A;fillColor=#F5AB50;labelBackgroundColor=none;" vertex="1" parent="iVWesP0wvM5eVoUu-c5u-1">
          <mxGeometry x="175" y="2492.5" width="120" height="45" as="geometry" />
        </mxCell>
        <mxCell id="LzMdF5yWvqr9AUWOiEUe-51" value="UI" style="swimlane;html=1;startSize=20;labelBackgroundColor=none;fillColor=#F5AB50;strokeColor=#909090;fontColor=#1A1A1A;rounded=1;" parent="1c1d494c118603dd-1" vertex="1">
          <mxGeometry x="970" y="20" width="250" height="2580" as="geometry">
            <mxRectangle y="20" width="40" height="2770" as="alternateBounds" />
          </mxGeometry>
        </mxCell>
        <mxCell id="LzMdF5yWvqr9AUWOiEUe-38" value="btn_id_search" style="html=1;shadow=0;dashed=0;align=center;verticalAlign=middle;shape=mxgraph.arrows2.arrow;dy=0;dx=10;notch=0;labelBackgroundColor=none;fillColor=#F5AB50;strokeColor=#909090;fontColor=#1A1A1A;rounded=1;" parent="LzMdF5yWvqr9AUWOiEUe-51" vertex="1">
          <mxGeometry x="60" y="590" width="130" height="30" as="geometry" />
        </mxCell>
        <mxCell id="LzMdF5yWvqr9AUWOiEUe-41" value="btn_pdln_search" style="html=1;shadow=0;dashed=0;align=center;verticalAlign=middle;shape=mxgraph.arrows2.arrow;dy=0;dx=10;notch=0;labelBackgroundColor=none;fillColor=#F5AB50;strokeColor=#909090;fontColor=#1A1A1A;rounded=1;" parent="LzMdF5yWvqr9AUWOiEUe-51" vertex="1">
          <mxGeometry x="60" y="780" width="130" height="30" as="geometry" />
        </mxCell>
        <mxCell id="LzMdF5yWvqr9AUWOiEUe-40" value="btn_psn_search" style="html=1;shadow=0;dashed=0;align=center;verticalAlign=middle;shape=mxgraph.arrows2.arrow;dy=0;dx=10;notch=0;labelBackgroundColor=none;fillColor=#F5AB50;strokeColor=#909090;fontColor=#1A1A1A;rounded=1;" parent="LzMdF5yWvqr9AUWOiEUe-51" vertex="1">
          <mxGeometry x="60" y="720" width="130" height="30" as="geometry" />
        </mxCell>
        <mxCell id="LzMdF5yWvqr9AUWOiEUe-39" value="btn_heat_search" style="html=1;shadow=0;dashed=0;align=center;verticalAlign=middle;shape=mxgraph.arrows2.arrow;dy=0;dx=10;notch=0;labelBackgroundColor=none;fillColor=#F5AB50;strokeColor=#909090;fontColor=#1A1A1A;rounded=1;" parent="LzMdF5yWvqr9AUWOiEUe-51" vertex="1">
          <mxGeometry x="60" y="670" width="130" height="30" as="geometry" />
        </mxCell>
        <mxCell id="LzMdF5yWvqr9AUWOiEUe-43" value="load_btn" style="html=1;shadow=0;dashed=0;align=center;verticalAlign=middle;shape=mxgraph.arrows2.arrow;dy=0;dx=10;notch=0;labelBackgroundColor=none;fillColor=#F5AB50;strokeColor=#909090;fontColor=#1A1A1A;rounded=1;" parent="LzMdF5yWvqr9AUWOiEUe-51" vertex="1">
          <mxGeometry x="50" y="1000" width="130" height="30" as="geometry" />
        </mxCell>
        <mxCell id="1c1d494c118603dd-4" value="sheet_loader_win.data_loader_UI" style="swimlane;html=1;startSize=20;labelBackgroundColor=none;fillColor=#F5AB50;strokeColor=#909090;fontColor=#1A1A1A;rounded=1;" parent="1c1d494c118603dd-1" vertex="1">
          <mxGeometry x="1220" y="20" width="570" height="2580" as="geometry" />
        </mxCell>
        <mxCell id="LzMdF5yWvqr9AUWOiEUe-27" style="edgeStyle=orthogonalEdgeStyle;rounded=0;orthogonalLoop=1;jettySize=auto;html=1;" parent="1c1d494c118603dd-4" source="LzMdF5yWvqr9AUWOiEUe-21" target="LzMdF5yWvqr9AUWOiEUe-23" edge="1">
          <mxGeometry relative="1" as="geometry" />
        </mxCell>
        <mxCell id="LzMdF5yWvqr9AUWOiEUe-21" value="show_sheet_info" style="rounded=1;whiteSpace=wrap;html=1;strokeColor=#909090;fontColor=#1A1A1A;fillColor=#F5AB50;labelBackgroundColor=none;" parent="1c1d494c118603dd-4" vertex="1">
          <mxGeometry x="360" y="420" width="120" height="45" as="geometry" />
        </mxCell>
        <mxCell id="LzMdF5yWvqr9AUWOiEUe-28" style="edgeStyle=orthogonalEdgeStyle;rounded=0;orthogonalLoop=1;jettySize=auto;html=1;entryX=1;entryY=0.5;entryDx=0;entryDy=0;" parent="1c1d494c118603dd-4" source="LzMdF5yWvqr9AUWOiEUe-23" target="LzMdF5yWvqr9AUWOiEUe-25" edge="1">
          <mxGeometry relative="1" as="geometry" />
        </mxCell>
        <mxCell id="LzMdF5yWvqr9AUWOiEUe-23" value="reset_search_lines" style="rounded=1;whiteSpace=wrap;html=1;strokeColor=#909090;fontColor=#1A1A1A;fillColor=#F5AB50;labelBackgroundColor=none;" parent="1c1d494c118603dd-4" vertex="1">
          <mxGeometry x="225" y="420" width="120" height="45" as="geometry" />
        </mxCell>
        <mxCell id="LzMdF5yWvqr9AUWOiEUe-26" style="edgeStyle=orthogonalEdgeStyle;rounded=0;orthogonalLoop=1;jettySize=auto;html=1;entryX=0.5;entryY=0;entryDx=0;entryDy=0;" parent="1c1d494c118603dd-4" source="LzMdF5yWvqr9AUWOiEUe-24" target="LzMdF5yWvqr9AUWOiEUe-25" edge="1">
          <mxGeometry relative="1" as="geometry" />
        </mxCell>
        <mxCell id="LzMdF5yWvqr9AUWOiEUe-24" value="show_UI" style="rounded=1;whiteSpace=wrap;html=1;strokeColor=#909090;fontColor=#1A1A1A;fillColor=#F5AB50;labelBackgroundColor=none;" parent="1c1d494c118603dd-4" vertex="1">
          <mxGeometry x="80" y="232" width="120" height="45" as="geometry" />
        </mxCell>
        <mxCell id="LzMdF5yWvqr9AUWOiEUe-25" value="set_parms" style="rounded=1;whiteSpace=wrap;html=1;strokeColor=#909090;fontColor=#1A1A1A;fillColor=#F5AB50;labelBackgroundColor=none;" parent="1c1d494c118603dd-4" vertex="1">
          <mxGeometry x="80" y="420" width="120" height="45" as="geometry" />
        </mxCell>
        <mxCell id="LzMdF5yWvqr9AUWOiEUe-63" style="edgeStyle=orthogonalEdgeStyle;rounded=0;orthogonalLoop=1;jettySize=auto;html=1;" parent="1c1d494c118603dd-4" source="LzMdF5yWvqr9AUWOiEUe-44" target="LzMdF5yWvqr9AUWOiEUe-46" edge="1">
          <mxGeometry relative="1" as="geometry" />
        </mxCell>
        <mxCell id="LzMdF5yWvqr9AUWOiEUe-44" value="base on click get line condition" style="rounded=1;whiteSpace=wrap;html=1;strokeColor=#909090;fontColor=#1A1A1A;fillColor=#F5AB50;labelBackgroundColor=none;" parent="1c1d494c118603dd-4" vertex="1">
          <mxGeometry x="290" y="582.5" width="120" height="45" as="geometry" />
        </mxCell>
        <mxCell id="LzMdF5yWvqr9AUWOiEUe-47" style="edgeStyle=orthogonalEdgeStyle;rounded=0;orthogonalLoop=1;jettySize=auto;html=1;entryX=1;entryY=0.5;entryDx=0;entryDy=0;" parent="1c1d494c118603dd-4" source="LzMdF5yWvqr9AUWOiEUe-46" target="LzMdF5yWvqr9AUWOiEUe-68" edge="1">
          <mxGeometry relative="1" as="geometry">
            <mxPoint x="140" y="770" as="targetPoint" />
          </mxGeometry>
        </mxCell>
        <mxCell id="LzMdF5yWvqr9AUWOiEUe-67" value="True" style="edgeLabel;html=1;align=center;verticalAlign=middle;resizable=0;points=[];" parent="LzMdF5yWvqr9AUWOiEUe-47" vertex="1" connectable="0">
          <mxGeometry x="-0.3313" y="5" relative="1" as="geometry">
            <mxPoint as="offset" />
          </mxGeometry>
        </mxCell>
        <mxCell id="LzMdF5yWvqr9AUWOiEUe-69" style="edgeStyle=orthogonalEdgeStyle;rounded=0;orthogonalLoop=1;jettySize=auto;html=1;" parent="1c1d494c118603dd-4" source="LzMdF5yWvqr9AUWOiEUe-46" edge="1">
          <mxGeometry relative="1" as="geometry">
            <mxPoint x="350" y="860" as="targetPoint" />
          </mxGeometry>
        </mxCell>
        <mxCell id="LzMdF5yWvqr9AUWOiEUe-46" value="&lt;font color=&quot;#1a1a1a&quot;&gt;in all sheets sheet_id == input_condition ?&lt;/font&gt;" style="rhombus;whiteSpace=wrap;html=1;fillColor=#F5AB50;strokeColor=#909090;" parent="1c1d494c118603dd-4" vertex="1">
          <mxGeometry x="255" y="730" width="190" height="80" as="geometry" />
        </mxCell>
        <mxCell id="LzMdF5yWvqr9AUWOiEUe-62" style="edgeStyle=orthogonalEdgeStyle;rounded=0;orthogonalLoop=1;jettySize=auto;html=1;" parent="1c1d494c118603dd-4" source="LzMdF5yWvqr9AUWOiEUe-50" target="LzMdF5yWvqr9AUWOiEUe-44" edge="1">
          <mxGeometry relative="1" as="geometry" />
        </mxCell>
        <mxCell id="LzMdF5yWvqr9AUWOiEUe-50" value="receive clicked&lt;br&gt;search&amp;nbsp;&lt;br&gt;" style="html=1;shape=mxgraph.sysml.accEvent;strokeWidth=2;whiteSpace=wrap;align=center;strokeColor=#909090;fontColor=#1A1A1A;fillColor=#F5AB50;labelBackgroundColor=none;rounded=1;" parent="1c1d494c118603dd-4" vertex="1">
          <mxGeometry x="65" y="590" width="100" height="30" as="geometry" />
        </mxCell>
        <mxCell id="LzMdF5yWvqr9AUWOiEUe-73" style="edgeStyle=orthogonalEdgeStyle;rounded=0;orthogonalLoop=1;jettySize=auto;html=1;entryX=0;entryY=0;entryDx=0;entryDy=0;" parent="1c1d494c118603dd-4" source="LzMdF5yWvqr9AUWOiEUe-68" target="LzMdF5yWvqr9AUWOiEUe-70" edge="1">
          <mxGeometry relative="1" as="geometry">
            <Array as="points">
              <mxPoint x="100" y="840" />
              <mxPoint x="303" y="840" />
            </Array>
          </mxGeometry>
        </mxCell>
        <mxCell id="LzMdF5yWvqr9AUWOiEUe-68" value="append sheet" style="rounded=1;whiteSpace=wrap;html=1;strokeColor=#909090;fontColor=#1A1A1A;fillColor=#F5AB50;labelBackgroundColor=none;" parent="1c1d494c118603dd-4" vertex="1">
          <mxGeometry x="45" y="747.5" width="120" height="45" as="geometry" />
        </mxCell>
        <mxCell id="LzMdF5yWvqr9AUWOiEUe-71" value="True" style="edgeStyle=orthogonalEdgeStyle;rounded=0;orthogonalLoop=1;jettySize=auto;html=1;entryX=0;entryY=0.5;entryDx=0;entryDy=0;" parent="1c1d494c118603dd-4" source="LzMdF5yWvqr9AUWOiEUe-70" target="LzMdF5yWvqr9AUWOiEUe-25" edge="1">
          <mxGeometry relative="1" as="geometry">
            <mxPoint x="180" y="900" as="targetPoint" />
            <Array as="points">
              <mxPoint x="20" y="900" />
              <mxPoint x="20" y="442" />
            </Array>
          </mxGeometry>
        </mxCell>
        <mxCell id="LzMdF5yWvqr9AUWOiEUe-72" value="False" style="edgeStyle=orthogonalEdgeStyle;rounded=0;orthogonalLoop=1;jettySize=auto;html=1;entryX=1;entryY=0.5;entryDx=0;entryDy=0;" parent="1c1d494c118603dd-4" source="LzMdF5yWvqr9AUWOiEUe-70" target="LzMdF5yWvqr9AUWOiEUe-46" edge="1">
          <mxGeometry relative="1" as="geometry">
            <Array as="points">
              <mxPoint x="465" y="900" />
              <mxPoint x="465" y="770" />
            </Array>
          </mxGeometry>
        </mxCell>
        <mxCell id="LzMdF5yWvqr9AUWOiEUe-70" value="&lt;font color=&quot;#1a1a1a&quot;&gt;all_sheet_checked ?&lt;/font&gt;" style="rhombus;whiteSpace=wrap;html=1;fillColor=#F5AB50;strokeColor=#909090;" parent="1c1d494c118603dd-4" vertex="1">
          <mxGeometry x="255" y="860" width="190" height="80" as="geometry" />
        </mxCell>
        <mxCell id="LzMdF5yWvqr9AUWOiEUe-81" style="edgeStyle=orthogonalEdgeStyle;rounded=0;orthogonalLoop=1;jettySize=auto;html=1;entryX=0;entryY=0.5;entryDx=0;entryDy=0;" parent="1c1d494c118603dd-4" source="LzMdF5yWvqr9AUWOiEUe-74" target="LzMdF5yWvqr9AUWOiEUe-75" edge="1">
          <mxGeometry relative="1" as="geometry" />
        </mxCell>
        <mxCell id="LzMdF5yWvqr9AUWOiEUe-74" value="receive clicked&lt;br&gt;load_btn" style="html=1;shape=mxgraph.sysml.accEvent;strokeWidth=2;whiteSpace=wrap;align=center;strokeColor=#909090;fontColor=#1A1A1A;fillColor=#F5AB50;labelBackgroundColor=none;rounded=1;" parent="1c1d494c118603dd-4" vertex="1">
          <mxGeometry x="55" y="1000" width="100" height="30" as="geometry" />
        </mxCell>
        <mxCell id="LzMdF5yWvqr9AUWOiEUe-75" value="load&lt;br&gt;set selected_sheets" style="rounded=1;whiteSpace=wrap;html=1;strokeColor=#909090;fontColor=#1A1A1A;fillColor=#F5AB50;labelBackgroundColor=none;" parent="1c1d494c118603dd-4" vertex="1">
          <mxGeometry x="226" y="992.5" width="120" height="45" as="geometry" />
        </mxCell>
        <mxCell id="LzMdF5yWvqr9AUWOiEUe-85" value="get_selected_sheets" style="rounded=1;whiteSpace=wrap;html=1;strokeColor=#909090;fontColor=#1A1A1A;fillColor=#F5AB50;labelBackgroundColor=none;" parent="1c1d494c118603dd-4" vertex="1">
          <mxGeometry x="225" y="1070" width="120" height="45" as="geometry" />
        </mxCell>
        <mxCell id="flL5xJ1YVoLGHaUx3-4S-1" style="edgeStyle=orthogonalEdgeStyle;rounded=0;orthogonalLoop=1;jettySize=auto;html=1;" edge="1" parent="1c1d494c118603dd-4" source="LzMdF5yWvqr9AUWOiEUe-92" target="LzMdF5yWvqr9AUWOiEUe-97">
          <mxGeometry relative="1" as="geometry" />
        </mxCell>
        <mxCell id="LzMdF5yWvqr9AUWOiEUe-92" value="load_sheet_win.close()" style="rounded=1;whiteSpace=wrap;html=1;strokeColor=#909090;fontColor=#1A1A1A;fillColor=#F5AB50;labelBackgroundColor=none;" parent="1c1d494c118603dd-4" vertex="1">
          <mxGeometry x="105" y="1250" width="155" height="45" as="geometry" />
        </mxCell>
        <mxCell id="LzMdF5yWvqr9AUWOiEUe-97" value="" style="ellipse;whiteSpace=wrap;html=1;rounded=1;shadow=0;comic=0;labelBackgroundColor=none;strokeWidth=1;fillColor=#330000;fontFamily=Verdana;fontSize=12;align=center;strokeColor=#909090;fontColor=#1A1A1A;" parent="1c1d494c118603dd-4" vertex="1">
          <mxGeometry x="167.5" y="1340" width="30" height="30" as="geometry" />
        </mxCell>
        <mxCell id="flL5xJ1YVoLGHaUx3-4S-14" value="load_sheet_win.close()" style="rounded=1;whiteSpace=wrap;html=1;strokeColor=#909090;fontColor=#1A1A1A;fillColor=#F5AB50;labelBackgroundColor=none;" vertex="1" parent="1c1d494c118603dd-4">
          <mxGeometry x="105" y="1800" width="155" height="45" as="geometry" />
        </mxCell>
        <mxCell id="f0cCqiSa7wZxdSKkSSJp-26" value="database_utils" style="swimlane;html=1;startSize=20;labelBackgroundColor=none;fillColor=#F5AB50;strokeColor=#909090;fontColor=#1A1A1A;rounded=1;" parent="1c1d494c118603dd-1" vertex="1">
          <mxGeometry x="1790" y="20" width="360" height="2580" as="geometry" />
        </mxCell>
        <mxCell id="LzMdF5yWvqr9AUWOiEUe-14" style="edgeStyle=orthogonalEdgeStyle;rounded=0;orthogonalLoop=1;jettySize=auto;html=1;" parent="f0cCqiSa7wZxdSKkSSJp-26" source="LzMdF5yWvqr9AUWOiEUe-12" edge="1">
          <mxGeometry relative="1" as="geometry">
            <mxPoint x="130" y="260" as="targetPoint" />
          </mxGeometry>
        </mxCell>
        <mxCell id="LzMdF5yWvqr9AUWOiEUe-12" value="report_last_sheets" style="rounded=1;whiteSpace=wrap;html=1;strokeColor=#909090;fontColor=#1A1A1A;fillColor=#F5AB50;labelBackgroundColor=none;" parent="f0cCqiSa7wZxdSKkSSJp-26" vertex="1">
          <mxGeometry x="70" y="140" width="120" height="45" as="geometry" />
        </mxCell>
        <mxCell id="LzMdF5yWvqr9AUWOiEUe-17" style="edgeStyle=orthogonalEdgeStyle;rounded=0;orthogonalLoop=1;jettySize=auto;html=1;" parent="f0cCqiSa7wZxdSKkSSJp-26" source="LzMdF5yWvqr9AUWOiEUe-15" edge="1">
          <mxGeometry relative="1" as="geometry">
            <mxPoint x="130" y="420" as="targetPoint" />
          </mxGeometry>
        </mxCell>
        <mxCell id="LzMdF5yWvqr9AUWOiEUe-15" value="report_last (9999)" style="rounded=1;whiteSpace=wrap;html=1;strokeColor=#909090;fontColor=#1A1A1A;fillColor=#F5AB50;labelBackgroundColor=none;" parent="f0cCqiSa7wZxdSKkSSJp-26" vertex="1">
          <mxGeometry x="70" y="260" width="120" height="45" as="geometry" />
        </mxCell>
        <mxCell id="LzMdF5yWvqr9AUWOiEUe-18" value="build_sheet" style="rounded=1;whiteSpace=wrap;html=1;strokeColor=#909090;fontColor=#1A1A1A;fillColor=#F5AB50;labelBackgroundColor=none;" parent="f0cCqiSa7wZxdSKkSSJp-26" vertex="1">
          <mxGeometry x="70" y="420" width="120" height="45" as="geometry" />
        </mxCell>
        <mxCell id="LzMdF5yWvqr9AUWOiEUe-19" style="edgeStyle=orthogonalEdgeStyle;rounded=0;orthogonalLoop=1;jettySize=auto;html=1;" parent="f0cCqiSa7wZxdSKkSSJp-26" source="LzMdF5yWvqr9AUWOiEUe-18" target="LzMdF5yWvqr9AUWOiEUe-18" edge="1">
          <mxGeometry relative="1" as="geometry" />
        </mxCell>
        <mxCell id="flL5xJ1YVoLGHaUx3-4S-18" style="edgeStyle=orthogonalEdgeStyle;rounded=0;orthogonalLoop=1;jettySize=auto;html=1;entryX=1;entryY=0.5;entryDx=0;entryDy=0;" edge="1" parent="f0cCqiSa7wZxdSKkSSJp-26" source="flL5xJ1YVoLGHaUx3-4S-16" target="flL5xJ1YVoLGHaUx3-4S-20">
          <mxGeometry relative="1" as="geometry">
            <mxPoint x="260" y="1969.9999999999995" as="targetPoint" />
            <Array as="points">
              <mxPoint x="265" y="1903" />
              <mxPoint x="265" y="1963" />
            </Array>
          </mxGeometry>
        </mxCell>
        <mxCell id="flL5xJ1YVoLGHaUx3-4S-16" value="load_sheet&lt;br&gt;get sheet id&amp;nbsp;" style="rounded=1;whiteSpace=wrap;html=1;strokeColor=#909090;fontColor=#1A1A1A;fillColor=#F5AB50;labelBackgroundColor=none;" vertex="1" parent="f0cCqiSa7wZxdSKkSSJp-26">
          <mxGeometry x="90" y="1880" width="155" height="45" as="geometry" />
        </mxCell>
        <mxCell id="flL5xJ1YVoLGHaUx3-4S-20" value="build_sheet" style="rounded=1;whiteSpace=wrap;html=1;strokeColor=#909090;fontColor=#1A1A1A;fillColor=#F5AB50;labelBackgroundColor=none;" vertex="1" parent="f0cCqiSa7wZxdSKkSSJp-26">
          <mxGeometry x="107.5" y="1940" width="120" height="45" as="geometry" />
        </mxCell>
        <mxCell id="LzMdF5yWvqr9AUWOiEUe-4" style="edgeStyle=orthogonalEdgeStyle;rounded=0;orthogonalLoop=1;jettySize=auto;html=1;entryX=0;entryY=0.5;entryDx=9;entryDy=0;entryPerimeter=0;" parent="1c1d494c118603dd-1" source="LzMdF5yWvqr9AUWOiEUe-1" target="0ttMGwkUPAn2IfLDutRi-20" edge="1">
          <mxGeometry relative="1" as="geometry">
            <Array as="points">
              <mxPoint x="300" y="95" />
              <mxPoint x="300" y="95" />
            </Array>
          </mxGeometry>
        </mxCell>
        <mxCell id="LzMdF5yWvqr9AUWOiEUe-5" style="edgeStyle=orthogonalEdgeStyle;rounded=0;orthogonalLoop=1;jettySize=auto;html=1;entryX=0;entryY=0.5;entryDx=9;entryDy=0;entryPerimeter=0;" parent="1c1d494c118603dd-1" source="LzMdF5yWvqr9AUWOiEUe-1" target="LzMdF5yWvqr9AUWOiEUe-3" edge="1">
          <mxGeometry relative="1" as="geometry">
            <Array as="points">
              <mxPoint x="375" y="106" />
            </Array>
          </mxGeometry>
        </mxCell>
        <mxCell id="LzMdF5yWvqr9AUWOiEUe-13" style="edgeStyle=orthogonalEdgeStyle;rounded=0;orthogonalLoop=1;jettySize=auto;html=1;" parent="1c1d494c118603dd-1" source="LzMdF5yWvqr9AUWOiEUe-11" target="LzMdF5yWvqr9AUWOiEUe-12" edge="1">
          <mxGeometry relative="1" as="geometry" />
        </mxCell>
        <mxCell id="LzMdF5yWvqr9AUWOiEUe-22" style="edgeStyle=orthogonalEdgeStyle;rounded=0;orthogonalLoop=1;jettySize=auto;html=1;" parent="1c1d494c118603dd-1" source="LzMdF5yWvqr9AUWOiEUe-18" target="LzMdF5yWvqr9AUWOiEUe-21" edge="1">
          <mxGeometry relative="1" as="geometry" />
        </mxCell>
        <mxCell id="LzMdF5yWvqr9AUWOiEUe-8" style="edgeStyle=orthogonalEdgeStyle;rounded=0;orthogonalLoop=1;jettySize=auto;html=1;entryX=0;entryY=0.5;entryDx=0;entryDy=0;" parent="1c1d494c118603dd-1" source="0ttMGwkUPAn2IfLDutRi-56" target="LzMdF5yWvqr9AUWOiEUe-24" edge="1">
          <mxGeometry relative="1" as="geometry">
            <mxPoint x="1140" y="275" as="targetPoint" />
          </mxGeometry>
        </mxCell>
        <mxCell id="LzMdF5yWvqr9AUWOiEUe-57" style="edgeStyle=orthogonalEdgeStyle;rounded=0;orthogonalLoop=1;jettySize=auto;html=1;entryX=0;entryY=0.5;entryDx=9;entryDy=0;entryPerimeter=0;" parent="1c1d494c118603dd-1" source="LzMdF5yWvqr9AUWOiEUe-38" target="LzMdF5yWvqr9AUWOiEUe-50" edge="1">
          <mxGeometry relative="1" as="geometry" />
        </mxCell>
        <mxCell id="LzMdF5yWvqr9AUWOiEUe-58" style="edgeStyle=orthogonalEdgeStyle;rounded=0;orthogonalLoop=1;jettySize=auto;html=1;entryX=0;entryY=0.5;entryDx=9;entryDy=0;entryPerimeter=0;" parent="1c1d494c118603dd-1" source="LzMdF5yWvqr9AUWOiEUe-39" target="LzMdF5yWvqr9AUWOiEUe-50" edge="1">
          <mxGeometry relative="1" as="geometry">
            <Array as="points">
              <mxPoint x="1200" y="705" />
              <mxPoint x="1200" y="625" />
            </Array>
          </mxGeometry>
        </mxCell>
        <mxCell id="LzMdF5yWvqr9AUWOiEUe-59" style="edgeStyle=orthogonalEdgeStyle;rounded=0;orthogonalLoop=1;jettySize=auto;html=1;entryX=0;entryY=0.5;entryDx=9;entryDy=0;entryPerimeter=0;" parent="1c1d494c118603dd-1" source="LzMdF5yWvqr9AUWOiEUe-40" target="LzMdF5yWvqr9AUWOiEUe-50" edge="1">
          <mxGeometry relative="1" as="geometry">
            <Array as="points">
              <mxPoint x="1200" y="755" />
              <mxPoint x="1200" y="625" />
            </Array>
          </mxGeometry>
        </mxCell>
        <mxCell id="LzMdF5yWvqr9AUWOiEUe-60" style="edgeStyle=orthogonalEdgeStyle;rounded=0;orthogonalLoop=1;jettySize=auto;html=1;entryX=0;entryY=0.5;entryDx=9;entryDy=0;entryPerimeter=0;" parent="1c1d494c118603dd-1" source="LzMdF5yWvqr9AUWOiEUe-41" target="LzMdF5yWvqr9AUWOiEUe-50" edge="1">
          <mxGeometry relative="1" as="geometry">
            <Array as="points">
              <mxPoint x="1200" y="815" />
              <mxPoint x="1200" y="625" />
            </Array>
          </mxGeometry>
        </mxCell>
        <mxCell id="LzMdF5yWvqr9AUWOiEUe-80" style="edgeStyle=orthogonalEdgeStyle;rounded=0;orthogonalLoop=1;jettySize=auto;html=1;entryX=0;entryY=0.5;entryDx=9;entryDy=0;entryPerimeter=0;" parent="1c1d494c118603dd-1" source="LzMdF5yWvqr9AUWOiEUe-43" target="LzMdF5yWvqr9AUWOiEUe-74" edge="1">
          <mxGeometry relative="1" as="geometry" />
        </mxCell>
        <mxCell id="LzMdF5yWvqr9AUWOiEUe-82" style="edgeStyle=orthogonalEdgeStyle;rounded=0;orthogonalLoop=1;jettySize=auto;html=1;entryX=0;entryY=0.5;entryDx=9;entryDy=0;entryPerimeter=0;" parent="1c1d494c118603dd-1" source="LzMdF5yWvqr9AUWOiEUe-43" target="LzMdF5yWvqr9AUWOiEUe-79" edge="1">
          <mxGeometry relative="1" as="geometry">
            <Array as="points">
              <mxPoint x="1085" y="980" />
              <mxPoint x="540" y="980" />
              <mxPoint x="540" y="1043" />
            </Array>
          </mxGeometry>
        </mxCell>
        <mxCell id="LzMdF5yWvqr9AUWOiEUe-86" style="edgeStyle=orthogonalEdgeStyle;rounded=0;orthogonalLoop=1;jettySize=auto;html=1;entryX=0;entryY=0.5;entryDx=0;entryDy=0;" parent="1c1d494c118603dd-1" source="LzMdF5yWvqr9AUWOiEUe-78" target="LzMdF5yWvqr9AUWOiEUe-85" edge="1">
          <mxGeometry relative="1" as="geometry">
            <Array as="points">
              <mxPoint x="910" y="1043" />
              <mxPoint x="910" y="1113" />
            </Array>
          </mxGeometry>
        </mxCell>
        <mxCell id="LzMdF5yWvqr9AUWOiEUe-90" style="edgeStyle=orthogonalEdgeStyle;rounded=0;orthogonalLoop=1;jettySize=auto;html=1;entryX=1;entryY=0.5;entryDx=0;entryDy=0;" parent="1c1d494c118603dd-1" source="LzMdF5yWvqr9AUWOiEUe-85" target="LzMdF5yWvqr9AUWOiEUe-89" edge="1">
          <mxGeometry relative="1" as="geometry">
            <Array as="points">
              <mxPoint x="1505" y="1180" />
              <mxPoint x="860" y="1180" />
              <mxPoint x="860" y="1175" />
            </Array>
          </mxGeometry>
        </mxCell>
        <mxCell id="LzMdF5yWvqr9AUWOiEUe-91" value="True" style="edgeStyle=orthogonalEdgeStyle;rounded=0;orthogonalLoop=1;jettySize=auto;html=1;entryX=0.5;entryY=0;entryDx=0;entryDy=0;" parent="1c1d494c118603dd-1" source="LzMdF5yWvqr9AUWOiEUe-89" target="LzMdF5yWvqr9AUWOiEUe-92" edge="1">
          <mxGeometry relative="1" as="geometry">
            <mxPoint x="747.5" y="1270" as="targetPoint" />
            <Array as="points">
              <mxPoint x="748" y="1240" />
              <mxPoint x="1403" y="1240" />
            </Array>
          </mxGeometry>
        </mxCell>
        <mxCell id="flL5xJ1YVoLGHaUx3-4S-15" style="edgeStyle=orthogonalEdgeStyle;rounded=0;orthogonalLoop=1;jettySize=auto;html=1;" edge="1" parent="1c1d494c118603dd-1" source="flL5xJ1YVoLGHaUx3-4S-12" target="flL5xJ1YVoLGHaUx3-4S-14">
          <mxGeometry relative="1" as="geometry" />
        </mxCell>
        <mxCell id="flL5xJ1YVoLGHaUx3-4S-17" style="edgeStyle=orthogonalEdgeStyle;rounded=0;orthogonalLoop=1;jettySize=auto;html=1;" edge="1" parent="1c1d494c118603dd-1" source="flL5xJ1YVoLGHaUx3-4S-14" target="flL5xJ1YVoLGHaUx3-4S-16">
          <mxGeometry relative="1" as="geometry" />
        </mxCell>
        <mxCell id="flL5xJ1YVoLGHaUx3-4S-22" style="edgeStyle=orthogonalEdgeStyle;rounded=0;orthogonalLoop=1;jettySize=auto;html=1;entryX=1;entryY=0.5;entryDx=0;entryDy=0;" edge="1" parent="1c1d494c118603dd-1" source="flL5xJ1YVoLGHaUx3-4S-20" target="flL5xJ1YVoLGHaUx3-4S-21">
          <mxGeometry relative="1" as="geometry">
            <Array as="points">
              <mxPoint x="1353" y="1983" />
              <mxPoint x="1353" y="1980" />
              <mxPoint x="808" y="1980" />
            </Array>
          </mxGeometry>
        </mxCell>
        <mxCell id="flL5xJ1YVoLGHaUx3-4S-39" style="edgeStyle=orthogonalEdgeStyle;rounded=0;orthogonalLoop=1;jettySize=auto;html=1;entryX=0;entryY=0.5;entryDx=9;entryDy=0;entryPerimeter=0;" edge="1" parent="1c1d494c118603dd-1" source="flL5xJ1YVoLGHaUx3-4S-35" target="flL5xJ1YVoLGHaUx3-4S-38">
          <mxGeometry relative="1" as="geometry" />
        </mxCell>
        <mxCell id="flL5xJ1YVoLGHaUx3-4S-42" style="edgeStyle=orthogonalEdgeStyle;rounded=0;orthogonalLoop=1;jettySize=auto;html=1;entryX=0;entryY=0.5;entryDx=0;entryDy=0;" edge="1" parent="1c1d494c118603dd-1" source="flL5xJ1YVoLGHaUx3-4S-40" target="flL5xJ1YVoLGHaUx3-4S-16">
          <mxGeometry relative="1" as="geometry">
            <Array as="points">
              <mxPoint x="1840" y="2446" />
              <mxPoint x="1840" y="1923" />
            </Array>
          </mxGeometry>
        </mxCell>
      </root>
    </mxGraphModel>
  </diagram>
</mxfile>
